<svg width="111" height="40" viewBox="0 0 111 40" fill="none" xmlns="http://www.w3.org/2000/svg">
<path d="M97.7042 9.31371C98.0563 9.36077 98.3808 9.70638 98.2153 10.0617C98.1001 10.3165 98.0628 10.602 97.7399 11.1245C97.1476 12.0948 98.0774 12.5767 98.6501 11.9666C99.1661 11.415 100.678 9.39809 100.808 7.46397C100.93 5.58502 99.7389 4.65365 98.4619 4.6569C97.1931 4.6569 95.9761 5.5834 95.9258 6.93176C95.8706 8.56895 97.1622 9.25043 97.7025 9.31371H97.7042Z" fill="#005CBA"/>
<path d="M109.53 14.8727C108.571 15.1015 107.362 15.6304 106.14 16.3525C105.731 15.4958 105.335 14.7786 105.144 14.3989C104.68 13.4708 104.24 12.3544 103.992 11.5886C103.836 11.0953 103.653 10.7026 103.093 10.7935C102.619 10.8633 102.374 11.3354 101.999 12.0705C101.165 13.6931 98.0189 20.1347 97.2774 21.0012C96.9707 21.3614 96.3736 21.4474 96.3736 20.7773V13.3069C96.3736 11.0661 93.8181 10.6426 92.7455 12.5134C91.8547 14.0663 89.833 18.5121 89.6253 18.9178C89.3446 19.4581 88.887 19.2975 88.9016 18.715L88.9065 13.1414C88.9081 10.9574 86.9545 10.9428 85.9015 12.0575C85.525 12.4583 84.7835 13.5438 83.6217 14.1847C83.1658 14.4362 82.6628 14.6212 82.1468 14.738C81.0597 11.1845 77.7723 10.0455 76.4791 11.7151C75.5948 12.8672 76.2796 14.3567 77.2872 15.2524C77.8892 15.7878 79.0331 16.3346 80.5778 16.3963C80.6005 16.6997 80.6086 17.0096 80.5989 17.3244C80.5194 19.7794 79.2408 21.6924 77.2255 21.6956C75.1178 21.6973 74.0079 19.9952 74.0518 17.2725C74.0875 15.043 74.8679 13.2971 75.5997 12.5362C76.1011 12.0088 75.7879 11.1229 75.0042 11.4344C73.1042 12.1889 69.3511 14.6228 67.5695 15.929C67.2726 15.2881 66.987 14.7364 66.7988 14.3356C66.3558 13.388 65.8074 12.4128 65.4229 11.4231C65.2298 10.912 64.7982 10.5761 64.3357 10.6751C63.9041 10.7789 63.7045 11.2527 63.3476 12.004C62.6856 13.414 59.0185 20.1883 58.5139 21.0515C58.105 21.7411 57.675 21.5512 57.6718 20.8454C57.6702 20.0195 57.6718 15.4795 57.6718 13.8797C57.6718 11.978 56.8313 11.3793 55.9243 11.3647C54.7544 11.3419 54.0145 11.978 53.234 13.2971C52.6174 14.3551 50.6233 18.2444 50.0927 19.1758C49.6692 19.9303 49.3106 19.7161 49.3025 18.9275C49.3009 18.6533 49.3025 14.605 49.3025 13.5487C49.3025 11.9991 48.7687 11.4279 47.7578 11.3419C46.7859 11.2657 45.9973 11.8238 45.4197 12.58C44.6635 13.5746 41.1734 19.7631 40.0846 21.2705C39.541 22.012 39.0007 22.012 39.0186 21.0466C39.0364 19.4419 39.0186 14.5384 39.0186 13.9478C39.0186 12.9256 38.707 11.462 37.065 11.3598C35.9 11.2851 34.915 11.9066 34.3001 12.8542C33.5115 14.0533 32.3644 16.9415 31.7932 18.1779C31.5628 18.6825 31.0679 18.7701 31.0501 17.842V13.4448C33.4434 11.2202 35.1568 8.12273 35.5333 5.38381C36.007 1.9196 34.8745 0.215883 32.8998 0.24509C30.6898 0.279164 29.3171 2.20842 28.6778 4.4492C28.097 6.48392 27.886 9.22447 27.886 11.5074C27.886 11.4928 27.886 12.4777 27.886 13.8683C27.3846 14.1701 26.8573 14.4216 26.3056 14.6082C25.7815 14.7834 25.2834 14.9003 24.8096 14.97C23.7874 11.2592 20.5341 10.2905 19.2912 11.6973C18.4637 12.6465 18.6697 14.3291 19.924 15.327C20.4578 15.7489 21.5369 16.3736 23.1708 16.5131C23.1822 16.7954 23.1854 17.0924 23.1805 17.4072C23.1416 19.8783 21.9522 21.6745 19.9986 21.6713C17.9996 21.6713 16.734 20.4852 16.7681 17.4234C16.7989 15.2945 17.3879 13.6866 18.3306 12.6919C18.9115 12.0883 18.5075 11.1002 17.4853 11.6502C16.244 12.3171 13.6835 13.5146 10.5455 16.6737C10.4254 14.8694 10.3394 13.1024 10.3524 11.4166C10.3751 8.35476 10.4092 5.0236 11.3146 1.95529C11.6488 0.830842 11.8517 -0.202744 10.414 0.0341533C6.52796 0.671828 0.897593 5.06254 0.121998 11.9293C-0.455641 17.0502 1.09068 20.2954 3.226 22.3609C3.79553 22.9191 4.61169 23.3215 5.22178 23.4918C5.17472 23.5681 5.12604 23.6427 5.07899 23.719C2.28328 28.2054 1.65534 31.2494 1.4947 33.6086C1.26105 36.9723 2.44229 39.1206 5.00111 39.1709C8.68437 39.2423 11.0452 35.4065 11.1831 28.9632C11.2529 25.6823 10.9576 22.2132 10.6996 18.822C12.0074 17.399 13.1789 16.4141 13.888 15.9306C14.1865 15.6677 14.3537 15.9728 14.2141 16.3541C13.9448 17.0648 13.7939 18.0708 13.8344 19.2715C13.9172 21.7492 15.6453 24.8337 19.4405 24.7039C23.557 24.5676 25.2883 20.8649 25.1114 16.9334C25.1033 16.7695 25.0919 16.6105 25.0773 16.4547C25.4051 16.4093 25.7458 16.346 26.1044 16.2584C26.7113 16.1123 27.3068 15.8982 27.886 15.6272V22.7714C27.886 24.8386 30.612 25.2523 31.5547 23.0619C32.3741 21.1667 33.9074 17.1232 34.9134 15.1144C35.358 14.2155 35.9113 14.4849 35.9113 15.2621V21.7411C35.9211 24.6017 39.249 25.5639 40.8196 23.156C41.7737 21.6891 44.6895 16.604 45.4586 15.4747C45.8529 14.9019 46.2829 15.0901 46.2829 15.7521V22.528C46.2829 24.9327 48.7606 25.2377 49.8298 23.1933C51.0549 20.8503 53.1285 16.6478 53.776 15.4617C54.094 14.8678 54.6311 14.8727 54.6311 15.7326V22.038C54.6311 25.095 57.6961 25.2183 59.0786 23.1316C59.8915 21.8952 62.6661 16.5018 62.9987 15.9079C63.3476 15.2848 63.7143 14.9846 64.0453 15.8576C64.1378 16.0977 64.5678 16.7987 65.0562 17.8306C63.6932 18.9567 62.3124 20.4057 62.2491 21.9423C62.1858 23.4269 63.1577 24.4946 64.4818 24.5968C67.0649 24.7996 68.9682 23.0116 68.8481 20.2824C68.8043 19.291 68.5155 18.2606 68.1569 17.3147C69.3317 16.4141 70.5681 15.5104 71.0256 15.2929C71.6666 14.9863 71.8126 15.1583 71.6146 15.8138C71.3209 16.7662 71.149 17.8371 71.1668 18.8253C71.196 20.7935 72.3951 24.6423 76.8604 24.6374C80.779 24.626 82.8332 20.4917 82.4648 16.3898C82.46 16.3395 82.4535 16.2908 82.447 16.2421C82.5298 16.2259 82.6109 16.2113 82.6953 16.1918C83.7516 15.9517 84.7251 15.3578 85.1097 15.043C85.4845 14.7315 85.8366 14.8354 85.8366 15.8722V22.6968C85.8366 24.0224 86.8896 24.5692 87.5176 24.5514C88.4506 24.5173 89.0639 23.8488 89.4777 22.8509C90.409 20.6069 92.15 16.9642 92.5135 16.2292C92.838 15.5866 93.2859 15.6823 93.2859 16.1837C93.2859 16.8879 93.2826 21.2803 93.2826 22.1305C93.2826 24.8516 96.0799 25.2215 97.2774 23.62C98.5787 21.8725 101.36 16.5423 101.585 16.1691C101.959 15.5379 102.333 15.8122 102.572 16.3006C102.786 16.7516 103.065 16.9447 103.472 17.9783C103.498 18.0448 103.526 18.1162 103.555 18.1876C102.069 19.4532 100.983 20.8535 100.962 22.0153C100.938 23.9462 102.429 24.7396 104.057 24.5384C105.765 24.3307 107.501 22.9872 107.381 20.2905C107.346 19.4873 107.065 18.5495 106.708 17.6522C107.655 17.0534 108.702 16.4871 109.559 16.187C110.48 15.8641 110.472 14.6455 109.526 14.8694L109.53 14.8727ZM3.07672 13.2582C3.25358 6.94474 5.93409 3.45618 7.85199 2.38203C8.53347 2.00559 8.88719 2.1857 8.39068 3.18846C7.65727 4.66987 6.80542 8.39695 6.92387 12.2068C7.00986 14.8694 7.23053 17.6246 7.43498 20.2937C6.90115 21.0012 6.35758 21.7654 5.80915 22.5946C3.89775 21.1358 2.95341 17.7236 3.07672 13.2582ZM7.75463 31.1731C7.44472 34.6942 6.79081 37.3876 4.94756 37.0664C3.64138 36.8408 3.11242 33.6963 4.60357 29.1108C5.37755 26.737 6.45656 24.6293 7.62158 22.8217C7.83738 25.9095 7.96394 28.7944 7.75301 31.1731H7.75463ZM20.7872 13.917C19.898 13.0213 20.5909 12.2181 21.5888 12.8266C22.2995 13.2533 22.7505 13.9575 22.9858 14.9879C22.0739 14.8451 21.3259 14.4687 20.7856 13.917H20.7872ZM32.7878 1.97314C34.1508 2.10295 33.7322 4.13442 33.3557 6.04258C33.0799 7.47857 32.2735 9.30397 31.0565 10.9282V7.01451C31.0776 4.14091 31.6034 1.85794 32.7878 1.97314ZM65.7003 22.1337C65.3969 22.9823 64.3325 23.1008 64.0891 22.3155C63.823 21.436 64.3812 20.4609 65.6744 19.3137C66.0005 20.3343 66.0054 21.3046 65.6987 22.1337H65.7003ZM78.3386 14.0906C77.0195 12.9613 77.8616 12.1159 78.7654 12.6579C79.489 13.0911 80.005 13.8829 80.3036 14.8597C79.5442 14.7786 78.8497 14.5287 78.3386 14.089V14.0906ZM104.134 22.6643C103.704 23.3247 102.408 23.0667 102.585 21.9569C102.742 21.006 103.367 20.3278 104.125 19.6268C104.488 20.6702 104.706 21.8092 104.133 22.6643H104.134Z" fill="#005CBA"/>
<path d="M107.475 9.53601H107.826C108.058 9.53601 108.225 9.56522 108.321 9.61714C108.481 9.71125 108.554 9.90109 108.554 10.1915V10.383L108.562 10.4658C108.569 10.4787 108.569 10.4852 108.572 10.4966C108.572 10.5079 108.572 10.5112 108.579 10.5144H108.994L108.978 10.4885C108.971 10.4658 108.958 10.4236 108.954 10.3619C108.949 10.2889 108.949 10.2321 108.949 10.1737V9.9952C108.949 9.86539 108.906 9.73072 108.814 9.60254C108.723 9.47111 108.58 9.38511 108.382 9.35753C108.54 9.33643 108.661 9.29424 108.749 9.23259C108.913 9.13199 108.992 8.97135 108.992 8.74906C108.992 8.43103 108.863 8.22172 108.605 8.11787C108.46 8.05946 108.227 8.02701 107.92 8.02701H107.034V10.5177H107.474V9.53763L107.475 9.53601ZM107.475 8.33205H107.858C108.105 8.33205 108.285 8.36937 108.397 8.42778C108.511 8.48782 108.566 8.60627 108.566 8.788C108.566 8.96973 108.485 9.1044 108.304 9.17417C108.212 9.20662 108.068 9.22123 107.879 9.22123H107.475V8.33205Z" fill="#005CBA"/>
<path d="M107.96 11.5659C108.593 11.5659 109.132 11.3387 109.581 10.8925C110.023 10.4495 110.247 9.90758 110.247 9.27802C110.247 8.64846 110.021 8.11463 109.581 7.6668C109.132 7.22708 108.593 7.00803 107.96 7.00803C107.328 7.00803 106.8 7.22708 106.361 7.6668C105.911 8.11463 105.694 8.65008 105.694 9.27802C105.694 9.90596 105.91 10.4495 106.353 10.8925C106.795 11.3387 107.333 11.5659 107.962 11.5659H107.96ZM106.572 7.8972C106.958 7.51265 107.42 7.31794 107.959 7.31794C108.498 7.31794 108.967 7.51265 109.349 7.8972C109.731 8.27689 109.925 8.7377 109.925 9.27802C109.925 9.81834 109.732 10.2889 109.349 10.6767C108.97 11.0612 108.506 11.2527 107.959 11.2527C107.412 11.2527 106.95 11.0596 106.568 10.6767C106.192 10.2889 106.002 9.82483 106.002 9.27802C106.002 8.73121 106.192 8.27689 106.572 7.8972Z" fill="#005CBA"/>
<path d="M42.7148 35.4259C42.0836 35.4259 41.36 35.0722 41.0371 34.5952V31.9633C41.36 31.4717 42.0836 31.1017 42.7148 31.1017C43.8539 31.1017 44.6084 31.9796 44.6084 33.2711C44.6084 34.5627 43.8539 35.4259 42.7148 35.4259ZM43.3314 29.3623C42.4536 29.3623 41.6228 29.7323 41.0387 30.5014V27.5921C41.0387 27.0534 40.5925 26.6072 40.0684 26.6072C39.5151 26.6072 39.0835 27.0534 39.0835 27.5921V36.1042C39.0835 36.6429 39.5151 37.0891 40.0684 37.0891C40.5762 37.0891 41.0533 36.6737 41.0533 36.135V36.0587C41.6536 36.7824 42.4536 37.167 43.3314 37.167C45.2103 37.167 46.6252 35.7504 46.6252 33.2728C46.6252 30.7951 45.2249 29.364 43.3314 29.364V29.3623Z" fill="#005CBA"/>
<path d="M52.4162 35.1956C52.0933 35.6272 51.4768 35.843 50.8456 35.843C50.0765 35.843 49.4453 35.4422 49.4453 34.7493C49.4453 34.0565 50.0765 33.6249 50.8456 33.6249C51.4768 33.6249 52.0917 33.8407 52.4162 34.2723V35.1956ZM51.123 29.3624C50.169 29.3624 49.2149 29.609 48.3679 30.1623C48.1683 30.2856 48.0142 30.5323 48.0142 30.8097C48.0142 31.2251 48.3533 31.5642 48.7524 31.5642C48.8904 31.5642 49.0299 31.5188 49.137 31.4571C49.6757 31.118 50.1982 30.9639 50.7839 30.9639C51.7688 30.9639 52.4162 31.4571 52.4162 32.21V33.242C51.923 32.6416 51.0468 32.3333 50.0602 32.3333C48.8758 32.3333 47.4738 32.9645 47.4738 34.7039C47.4738 36.4433 48.8741 37.167 50.0602 37.167C51.0305 37.167 51.9067 36.797 52.4 36.2129C52.4617 36.7208 52.8933 37.0907 53.3849 37.0907C53.9398 37.0907 54.3698 36.6283 54.3698 36.075V32.1808C54.3698 30.0406 52.8154 29.364 51.123 29.364V29.3624Z" fill="#005CBA"/>
<path d="M59.3722 35.4259C58.7411 35.4259 58.0174 35.0722 57.6945 34.5952V31.9633C58.0174 31.4717 58.7411 31.1017 59.3722 31.1017C60.5113 31.1017 61.2658 31.9796 61.2658 33.2711C61.2658 34.5627 60.5113 35.4259 59.3722 35.4259ZM59.9888 29.3623C59.111 29.3623 58.2802 29.7323 57.6961 30.5014V27.5921C57.6961 27.0534 57.2499 26.6072 56.7258 26.6072C56.1725 26.6072 55.7409 27.0534 55.7409 27.5921V36.1042C55.7409 36.6429 56.1725 37.0891 56.7258 37.0891C57.2337 37.0891 57.7107 36.6737 57.7107 36.135V36.0587C58.3111 36.7824 59.111 37.167 59.9888 37.167C61.8678 37.167 63.2827 35.7504 63.2827 33.2728C63.2827 30.7951 61.8824 29.364 59.9888 29.364V29.3623Z" fill="#005CBA"/>
<path d="M70.2062 29.4386C69.8055 29.4386 69.4371 29.6706 69.2992 30.0389L67.529 34.7801L65.7441 30.0389C65.5949 29.5895 65.0821 29.3461 64.5921 29.471C64.1362 29.5879 63.8652 30.0357 63.9009 30.5062C63.9074 30.5955 63.9252 30.6831 63.9593 30.7626L66.3364 36.6477C66.45 36.9301 66.4451 37.2465 66.3234 37.5239L66.2374 37.7203C66.0524 38.1194 65.7295 38.2427 65.2217 38.259C65.1908 38.259 65.16 38.2752 65.1292 38.2752C64.683 38.2898 64.2984 38.6289 64.2984 39.1059C64.2984 39.583 64.6521 39.9692 65.1762 39.9838C65.2525 40 65.3304 40 65.392 40C66.5003 39.9838 67.5322 39.5846 68.0855 38.1989L71.1019 30.7805C71.1473 30.6734 71.1798 30.5338 71.1798 30.4105C71.1798 29.8718 70.7644 29.4402 70.2095 29.4402L70.2062 29.4386Z" fill="#005CBA"/>
</svg>
